<?xml version="1.0" standalone="no"?>
<!DOCTYPE svg PUBLIC "-//W3C//DTD SVG 20010904//EN"
 "http://www.w3.org/TR/2001/REC-SVG-20010904/DTD/svg10.dtd">
<svg version="1.0" xmlns="http://www.w3.org/2000/svg"
 width="512.000000pt" height="512.000000pt" viewBox="0 0 512.000000 512.000000"
 preserveAspectRatio="xMidYMid meet">

<g transform="translate(0.000000,512.000000) scale(0.100000,-0.100000)"
fill="#fff" stroke="none">
<path d="M1493 3961 c-199 -32 -383 -131 -534 -287 -237 -246 -338 -551 -309
-931 41 -533 248 -885 738 -1250 62 -46 246 -174 408 -284 364 -246 502 -349
697 -522 l66 -58 108 96 c148 133 315 256 668 495 410 277 507 352 670 515
150 149 230 256 304 403 168 334 209 804 100 1123 -99 288 -317 531 -573 638
-120 50 -196 65 -336 64 -106 0 -139 -4 -215 -27 -104 -31 -230 -95 -313 -159
-132 -102 -313 -323 -383 -469 -13 -27 -26 -48 -29 -48 -4 0 -20 24 -35 53
-177 328 -437 557 -713 628 -87 22 -243 32 -319 20z"/>
</g>
</svg>
